<svg xmlns="http://www.w3.org/2000/svg" width="117" height="20"><defs><linearGradient id="b" x2="0" y2="100%"><stop offset="0" stop-color="#bbb" stop-opacity=".1"/><stop offset="1" stop-opacity=".1"/></linearGradient></defs><mask id="a"><rect id="svg_1" width="117" height="20" fill="#fff" rx="3"/></mask><g><title>background</title><rect id="canvas_background" width="582" height="402" x="-1" y="-1" fill="none"/></g><g><title>Layer 1</title><path id="svg_3" fill="#555" d="m0,0l37,0l0,20l-37,0l0,-20z"/><path id="svg_4" fill="#4c1" d="m37,0l80,0l0,20l-80,0l0,-20z"/><path id="svg_5" fill="url(#b)" d="m0,0l117,0l0,20l-117,0l0,-20z"/><g id="svg_6" fill="#fff" font-family="DejaVu Sans,Verdana,Geneva,sans-serif" font-size="11" text-anchor="middle"><text id="svg_7" x="2.5" y="96" fill="#010101" fill-opacity=".3">code</text><text id="svg_8" x="30.5" y="-87">code</text><polyline id="svg_11" fill="none" stroke="#000" stroke-linecap="round" stroke-width="1.5" points="-497 -174.962 -496 -174.962 -495 -174.962 -491 -171.962 -489 -167.962 -479 -154.962 -472 -145.962 -466 -142.962 -462 -135.962 -443 -110.962 -430 -87.962 -423 -79.962 -423 -79.962 -420 -76.962 -420 -75.962 -419 -74.962 -418 -70.962 -414 -65.962 -408 -59.962 -403 -54.962 -399 -49.962 -396 -46.962 -394 -44.962 -393 -43.962 -392 -43.962 -391 -43.962 -391 -43.962" opacity=".5"/><text id="svg_13" x="84" y="-19.962" fill="null" stroke="#000" stroke-width="null" font-family="null" font-size="null" text-anchor="start" xml:space="preserve">where to use</text><text id="svg_14" x="15.589" y="14.311" fill="#010101" stroke="#000" stroke-width="null" font-family="null" font-size="null" text-anchor="start" transform="matrix(1.2123252386686545,0,0,1,-1.192765177128848,0)" xml:space="preserve">where to use</text></g></g></svg>